<?xml version="1.0" encoding="utf-8"?>
<!-- Generator: Adobe Illustrator 15.1.0, SVG Export Plug-In . SVG Version: 6.00 Build 0)  -->
<!DOCTYPE svg PUBLIC "-//W3C//DTD SVG 1.0//EN" "http://www.w3.org/TR/2001/REC-SVG-20010904/DTD/svg10.dtd">
<svg version="1.0" id="Layer_1" xmlns="http://www.w3.org/2000/svg" xmlns:xlink="http://www.w3.org/1999/xlink" x="0px" y="0px"
	 width="20px" height="20px" viewBox="0 0 20 20" enable-background="new 0 0 20 20" xml:space="preserve">
<g>
	<path fill="#3D5B99" d="M20,18.857C20,19.485,19.485,20,18.857,20H1.143C0.515,20,0,19.485,0,18.857V1.143C0,0.515,0.515,0,1.143,0
		h17.714C19.485,0,20,0.515,20,1.143V18.857z"/>
	<rect x="1.429" y="15.714" fill="#6E85B4" width="17.143" height="2.857"/>
	<path fill="#FFFFFF" d="M11.429,18.571v-7.353H9.484V8.571h1.944c0,0,0-1.084,0-2.261c0-1.776,1.148-3.408,3.795-3.408
		c1.071,0,1.863,0.103,1.863,0.103l-0.062,2.472c0,0-0.808-0.008-1.689-0.008c-0.954,0-1.107,0.44-1.107,1.169
		c0,0.577,0-1.229,0,1.933h2.873l-0.125,2.647h-2.748v7.353H11.429z"/>
</g>
</svg>
