<?xml version="1.0" encoding="utf-8"?>
<!-- Generator: Adobe Illustrator 15.1.0, SVG Export Plug-In . SVG Version: 6.00 Build 0)  -->
<!DOCTYPE svg PUBLIC "-//W3C//DTD SVG 1.0//EN" "http://www.w3.org/TR/2001/REC-SVG-20010904/DTD/svg10.dtd">
<svg version="1.0" id="Layer_1" xmlns="http://www.w3.org/2000/svg" xmlns:xlink="http://www.w3.org/1999/xlink" x="0px" y="0px"
	 width="20px" height="20px" viewBox="0 0 20 20" enable-background="new 0 0 20 20" xml:space="preserve">
<circle fill="#C82027" cx="10" cy="10" r="10"/>
<rect fill="none" width="20" height="20"/>
<path fill="#FFFFFF" d="M8.92,2.807h2.117c0.635,0,0.729,0.371,0.729,0.593c0,0.088,0,0.088-0.005,0.19l-0.013,0.223l-0.438,7.741
	c-0.061,0.596-0.32,0.709-0.748,0.709H9.435c-0.426,0-0.686-0.113-0.748-0.693L8.236,3.591C8.231,3.485,8.231,3.485,8.231,3.4
	C8.231,3.178,8.32,2.807,8.92,2.807 M10.008,17.707c-1.11,0-2.016-0.896-2.016-1.996c0-1.131,0.886-2.016,2.016-2.016
	c1.102,0,1.998,0.902,1.998,2.016C12.006,16.793,11.092,17.707,10.008,17.707"/>
</svg>
