<?xml version="1.0" encoding="utf-8"?>
<!-- Generator: Adobe Illustrator 15.1.0, SVG Export Plug-In . SVG Version: 6.00 Build 0)  -->
<!DOCTYPE svg PUBLIC "-//W3C//DTD SVG 1.0//EN" "http://www.w3.org/TR/2001/REC-SVG-20010904/DTD/svg10.dtd">
<svg version="1.0" id="Layer_1" xmlns="http://www.w3.org/2000/svg" xmlns:xlink="http://www.w3.org/1999/xlink" x="0px" y="0px"
	 width="30px" height="30px" viewBox="0 0 30 30" enable-background="new 0 0 30 30" xml:space="preserve">
<path fill="#FFFFFF" d="M13.094,1.142h3.98c1.195,0,1.369,0.698,1.369,1.113c0,0.167,0,0.167-0.011,0.356L18.41,3.033L17.583,17.58
	c-0.112,1.123-0.597,1.335-1.401,1.335h-2.118c-0.801,0-1.289-0.212-1.406-1.303l-0.85-14.999c-0.009-0.198-0.009-0.198-0.009-0.36
	C11.799,1.839,11.966,1.142,13.094,1.142 M15.139,29.142c-2.085,0-3.787-1.687-3.787-3.747c0-2.128,1.664-3.79,3.787-3.79
	c2.07,0,3.754,1.695,3.754,3.79C18.893,27.428,17.172,29.142,15.139,29.142"/>
</svg>
