<?xml version="1.0" encoding="utf-8"?>
<!-- Generator: Adobe Illustrator 15.1.0, SVG Export Plug-In . SVG Version: 6.00 Build 0)  -->
<!DOCTYPE svg PUBLIC "-//W3C//DTD SVG 1.1//EN" "http://www.w3.org/Graphics/SVG/1.1/DTD/svg11.dtd">
<svg version="1.1" id="Layer_1" xmlns="http://www.w3.org/2000/svg" xmlns:xlink="http://www.w3.org/1999/xlink" x="0px" y="0px"
	 width="20px" height="20px" viewBox="0 0 20 20" enable-background="new 0 0 20 20" xml:space="preserve">
<circle fill="#C82027" cx="10" cy="10" r="10"/>
<rect x="0" fill="none" width="20" height="20"/>
<path fill="#FFFFFF" d="M9.152,4.144h1.664c0.5,0,0.573,0.292,0.573,0.466c0,0.069,0,0.069-0.004,0.149l-0.01,0.176L11.03,11.02
	c-0.048,0.469-0.251,0.558-0.587,0.558H9.557c-0.335,0-0.539-0.089-0.588-0.545L8.614,4.76C8.61,4.677,8.61,4.677,8.61,4.609
	C8.61,4.436,8.68,4.144,9.152,4.144 M10.007,15.856c-0.872,0-1.584-0.705-1.584-1.568c0-0.89,0.696-1.585,1.584-1.585
	c0.866,0,1.57,0.709,1.57,1.585C11.577,15.138,10.858,15.856,10.007,15.856"/>
</svg>
