<?xml version="1.0" encoding="utf-8"?>
<!-- Generator: Adobe Illustrator 15.1.0, SVG Export Plug-In . SVG Version: 6.00 Build 0)  -->
<!DOCTYPE svg PUBLIC "-//W3C//DTD SVG 1.0//EN" "http://www.w3.org/TR/2001/REC-SVG-20010904/DTD/svg10.dtd">
<svg version="1.0" id="Layer_1" xmlns="http://www.w3.org/2000/svg" xmlns:xlink="http://www.w3.org/1999/xlink" x="0px" y="0px"
	 width="20px" height="20px" viewBox="0 0 20 20" enable-background="new 0 0 20 20" xml:space="preserve">
<path fill="#2CAAE1" d="M20,3.799c-0.736,0.326-1.526,0.547-2.356,0.646c0.847-0.508,1.497-1.312,1.804-2.27
	c-0.793,0.47-1.671,0.812-2.605,0.996c-0.748-0.797-1.814-1.296-2.995-1.296c-2.266,0-4.103,1.837-4.103,4.103
	c0,0.322,0.036,0.635,0.106,0.936c-3.41-0.171-6.434-1.805-8.457-4.288C1.039,3.231,0.837,3.937,0.837,4.688
	c0,1.424,0.724,2.68,1.825,3.416C1.99,8.083,1.357,7.898,0.804,7.591c0,0.017,0,0.034,0,0.051c0,1.988,1.415,3.647,3.292,4.024
	C3.75,11.76,3.388,11.81,3.014,11.81c-0.264,0-0.521-0.025-0.772-0.073c0.522,1.63,2.038,2.816,3.833,2.85
	c-1.404,1.101-3.173,1.756-5.096,1.756c-0.332,0-0.658-0.02-0.979-0.058c1.816,1.165,3.973,1.844,6.29,1.844
	c7.547,0,11.675-6.252,11.675-11.674c0-0.178-0.004-0.355-0.013-0.531C18.754,5.344,19.45,4.622,20,3.799z"/>
</svg>
