<?xml version="1.0" encoding="utf-8"?>
<!-- Generator: Adobe Illustrator 15.1.0, SVG Export Plug-In . SVG Version: 6.00 Build 0)  -->
<!DOCTYPE svg PUBLIC "-//W3C//DTD SVG 1.1//EN" "http://www.w3.org/Graphics/SVG/1.1/DTD/svg11.dtd">
<svg version="1.1" id="Layer_1" xmlns="http://www.w3.org/2000/svg" xmlns:xlink="http://www.w3.org/1999/xlink" x="0px" y="0px"
	 width="80px" height="20px" viewBox="0 0 80 20" enable-background="new 0 0 80 20" xml:space="preserve">
<g>
	<path fill="#BBBEC6" d="M20,10c0,5.523-4.477,10-10,10S0,15.522,0,10C0,4.478,4.477,0,10,0S20,4.478,20,10z M16.496,11.239
		L16.496,11.239l-4.332-7.5l0,0c-0.432-0.747-1.24-1.25-2.165-1.25c-0.925,0-1.732,0.503-2.166,1.25l0,0l-4.33,7.5l0,0.001
		c-0.213,0.367-0.335,0.793-0.335,1.249c0,1.381,1.119,2.5,2.5,2.5h8.661c1.38,0,2.5-1.119,2.5-2.5
		C16.83,12.033,16.708,11.607,16.496,11.239z M10,7.489c-1.381,0-2.5,1.12-2.5,2.5c0,1.381,1.12,2.5,2.5,2.5
		c1.38,0,2.5-1.119,2.5-2.5C12.5,8.608,11.38,7.489,10,7.489z"/>
	<g>
		<path fill="#BBBEC6" d="M26.941,6.788h-1.943V5.02h1.943V6.788z M24.999,7.662h1.943v7.327h-1.943V7.662z"/>
		<path fill="#BBBEC6" d="M29.927,14.988h-1.916V5.08h1.916V14.988z"/>
		<path fill="#BBBEC6" d="M32.925,14.988H31.01V5.08h1.916V14.988z"/>
		<path fill="#BBBEC6" d="M35.877,7.662v4.417c0,0.417,0.049,0.73,0.147,0.941c0.173,0.371,0.515,0.558,1.022,0.558
			c0.652,0,1.098-0.264,1.338-0.794c0.125-0.286,0.188-0.665,0.188-1.135V7.662h2.011v7.327h-1.93v-1.035
			c-0.018,0.022-0.063,0.09-0.134,0.202c-0.071,0.111-0.157,0.211-0.255,0.296c-0.299,0.269-0.588,0.452-0.868,0.551
			c-0.279,0.099-0.606,0.148-0.982,0.148c-1.081,0-1.81-0.391-2.185-1.17c-0.21-0.431-0.315-1.064-0.315-1.902V7.662H35.877z"/>
		<path fill="#BBBEC6" d="M50.683,7.688c0.314,0.125,0.599,0.345,0.854,0.659c0.206,0.255,0.346,0.569,0.417,0.941
			c0.045,0.247,0.067,0.607,0.067,1.083l-0.013,4.618h-1.963v-4.665c0-0.277-0.045-0.506-0.135-0.686
			c-0.171-0.34-0.484-0.511-0.941-0.511c-0.529,0-0.894,0.219-1.096,0.659c-0.104,0.233-0.155,0.513-0.155,0.84v4.362h-1.929v-4.362
			c0-0.435-0.045-0.75-0.135-0.948c-0.161-0.354-0.478-0.531-0.947-0.531c-0.547,0-0.914,0.177-1.103,0.531
			c-0.104,0.202-0.155,0.502-0.155,0.9v4.41h-1.941V7.675h1.861v1.069c0.237-0.381,0.461-0.652,0.672-0.813
			c0.372-0.287,0.854-0.43,1.446-0.43c0.56,0,1.013,0.124,1.357,0.37c0.277,0.228,0.488,0.522,0.632,0.88
			c0.251-0.43,0.562-0.746,0.935-0.948C48.805,7.601,49.244,7.5,49.729,7.5C50.052,7.5,50.369,7.563,50.683,7.688z"/>
		<path fill="#BBBEC6" d="M54.871,6.788h-1.942V5.02h1.942V6.788z M52.929,7.662h1.942v7.327h-1.942V7.662z"/>
		<path fill="#BBBEC6" d="M61.741,8.082c0.48,0.396,0.72,1.054,0.72,1.973v4.934h-1.962v-4.456c0-0.386-0.052-0.682-0.153-0.888
			c-0.188-0.376-0.543-0.564-1.068-0.564c-0.645,0-1.088,0.275-1.328,0.826c-0.124,0.292-0.188,0.664-0.188,1.116v3.966h-1.915
			V7.675h1.855v1.069c0.245-0.376,0.478-0.647,0.696-0.813c0.393-0.295,0.891-0.443,1.493-0.443
			C60.645,7.487,61.263,7.685,61.741,8.082z"/>
		<path fill="#BBBEC6" d="M66.461,10.532c0.356-0.045,0.611-0.101,0.765-0.168c0.275-0.116,0.413-0.298,0.413-0.544
			c0-0.3-0.105-0.508-0.316-0.622c-0.212-0.114-0.521-0.171-0.931-0.171c-0.458,0-0.783,0.112-0.974,0.336
			c-0.137,0.166-0.228,0.39-0.272,0.672h-1.85c0.041-0.641,0.221-1.167,0.541-1.579c0.509-0.646,1.382-0.968,2.62-0.968
			c0.805,0,1.521,0.159,2.146,0.477c0.626,0.318,0.938,0.918,0.938,1.802v3.361c0,0.232,0.005,0.515,0.014,0.847
			c0.014,0.251,0.051,0.421,0.115,0.511c0.062,0.09,0.156,0.164,0.281,0.223v0.281h-2.083c-0.06-0.147-0.1-0.286-0.122-0.416
			c-0.022-0.131-0.04-0.278-0.053-0.444c-0.267,0.287-0.573,0.531-0.921,0.733c-0.414,0.237-0.883,0.356-1.405,0.356
			c-0.667,0-1.219-0.19-1.653-0.568c-0.436-0.379-0.652-0.915-0.652-1.61c0-0.9,0.35-1.553,1.05-1.956
			c0.384-0.22,0.948-0.376,1.693-0.471L66.461,10.532z M67.632,11.427c-0.122,0.075-0.246,0.137-0.371,0.184
			s-0.296,0.091-0.514,0.131l-0.437,0.081c-0.409,0.072-0.703,0.159-0.881,0.263c-0.302,0.174-0.453,0.445-0.453,0.813
			c0,0.326,0.093,0.563,0.276,0.708c0.185,0.146,0.409,0.22,0.673,0.22c0.419,0,0.804-0.122,1.157-0.363
			c0.353-0.242,0.536-0.684,0.549-1.324V11.427z"/>
		<path fill="#BBBEC6" d="M69.912,9.093V7.729h1.021V5.685h1.896v2.043h1.189v1.365h-1.189v3.872c0,0.301,0.038,0.487,0.114,0.562
			s0.309,0.111,0.699,0.111c0.058,0,0.119-0.001,0.186-0.004c0.064-0.002,0.128-0.005,0.19-0.01v1.432l-0.907,0.034
			c-0.905,0.031-1.523-0.126-1.855-0.472c-0.215-0.219-0.323-0.558-0.323-1.014V9.093H69.912z"/>
		<path fill="#BBBEC6" d="M76.668,6.788h-1.942V5.02h1.942V6.788z M74.726,7.662h1.942v7.327h-1.942V7.662z"/>
	</g>
</g>
</svg>
